<svg width="42" height="42" viewBox="0 0 42 42" fill="none" xmlns="http://www.w3.org/2000/svg">
<g id="icon-park-outline:sound-wave">
<path id="Vector" d="M5.25 12.25V10.5C5.25 9.10761 5.80312 7.77226 6.78769 6.78769C7.77226 5.80312 9.10761 5.25 10.5 5.25H31.5C32.8924 5.25 34.2277 5.80312 35.2123 6.78769C36.1969 7.77226 36.75 9.10761 36.75 10.5V12.25M28 15.75V26.25M35 17.5V24.5M21 13.125V28.875M14 15.75V26.25M7 17.5V24.5M5.25 29.75V31.5C5.25 32.8924 5.80312 34.2277 6.78769 35.2123C7.77226 36.1969 9.10761 36.75 10.5 36.75H31.5C32.8924 36.75 34.2277 36.1969 35.2123 35.2123C36.1969 34.2277 36.75 32.8924 36.75 31.5V29.75" stroke="#38630E" stroke-width="4" stroke-linecap="round" stroke-linejoin="round"/>
</g>
</svg>
