<svg width="43" height="43" viewBox="0 0 43 43" fill="none" xmlns="http://www.w3.org/2000/svg">
<g id="la:icons">
<path id="Vector" d="M6.71875 6.71875V36.2812H36.2812V6.71875H6.71875ZM9.40625 9.40625H20.1562V20.1562H9.40625V9.40625ZM22.8438 9.40625H33.5938V20.1562H22.8438V9.40625ZM14.7812 12.0938L10.75 17.4688H18.8125L14.7812 12.0938ZM25.5312 12.0938V17.4688H30.9062V12.0938H25.5312ZM9.40625 22.8438H20.1562V33.5938H9.40625V22.8438ZM22.8438 22.8438H33.5938V33.5938H22.8438V22.8438ZM28.2188 24.1875L25.5312 28.2188L28.2188 32.25L30.9062 28.2188L28.2188 24.1875ZM14.7812 25.5312C14.0685 25.5312 13.3849 25.8144 12.8809 26.3184C12.3769 26.8224 12.0938 27.506 12.0938 28.2188C12.0938 28.9315 12.3769 29.6151 12.8809 30.1191C13.3849 30.6231 14.0685 30.9062 14.7812 30.9062C15.494 30.9062 16.1776 30.6231 16.6816 30.1191C17.1856 29.6151 17.4688 28.9315 17.4688 28.2188C17.4688 27.506 17.1856 26.8224 16.6816 26.3184C16.1776 25.8144 15.494 25.5312 14.7812 25.5312Z" fill="#081448"/>
</g>
</svg>
