<svg width="132" height="32" viewBox="0 0 132 32" fill="none" xmlns="http://www.w3.org/2000/svg">
<g clip-path="url(#clip0_8_378)">
<path d="M24.8528 31.6752H17.8766L12.4686 23.8235H6.49803V31.6752H0V3.50219H12.1451C19.6418 3.50219 24.3324 7.40687 24.3324 13.7264C24.3324 17.9559 22.2086 21.0485 18.5588 22.6231L24.8528 31.6822V31.6752ZM17.7571 13.7264C17.7571 10.6266 15.7528 8.81905 11.7865 8.81905H6.49803V18.6408H11.7865C15.7528 18.6408 17.7571 16.7908 17.7571 13.7334V13.7264ZM36.8925 32C30.0358 32 25.0287 27.368 25.0287 20.8508C25.0287 14.3336 30.0358 9.70166 36.8925 9.70166C43.7492 9.70166 48.7141 14.3336 48.7141 20.8508C48.7141 27.368 43.7421 32 36.8925 32ZM36.8925 26.8455C40.0219 26.8455 42.3849 24.5931 42.3849 20.8508C42.3849 17.1085 40.0219 14.8561 36.8925 14.8561C33.763 14.8561 31.3579 17.1085 31.3579 20.8508C31.3579 24.5931 33.763 26.8455 36.8925 26.8455ZM62.7158 26.203L64.3966 30.6302C63.1167 31.5552 61.232 32 59.3051 32C54.2135 32 51.2458 29.3804 51.2458 24.233V15.3363H47.9194V10.5066H51.2458V5.23211H57.4977V10.5066H62.8705V15.3363H57.4977V24.1483C57.4977 25.9982 58.5034 27.0079 60.1841 27.0079C61.1054 27.0079 62.0266 26.7255 62.7088 26.203H62.7158ZM80.9792 10.0194H87.2311V31.6752H81.2957V29.098C79.6501 30.9903 77.245 31.9929 74.6007 31.9929C69.1927 31.9929 65.3811 28.9356 65.3811 22.2559V10.0194H71.633V21.331C71.633 24.9532 73.2364 26.5631 76.0002 26.5631C78.764 26.5631 80.9722 24.7131 80.9722 20.7237V10.0194H80.9792ZM90.6208 31.6752V1.81464H96.8727V31.6752H90.6208Z" fill="white"/>
<path d="M118.104 31.6752L115.621 25.6381H102.597L100.115 31.6752H93.4619L105.966 3.50221H112.379L124.925 31.6752H118.111H118.104ZM104.679 20.6884H113.575L109.123 9.89938L104.672 20.6884H104.679ZM128.111 7.00441C125.783 7.00441 124.222 5.4722 124.222 3.50221C124.222 1.53222 125.783 0 128.111 0C130.439 0 132 1.44748 132 3.38217C132 5.4722 130.439 7.00441 128.111 7.00441ZM124.989 31.6752V10.0194H131.24V31.6752H124.989Z" fill="#CFEE2F"/>
<path d="M45.0713 14.0229H28.8965V28.1448H45.0713V14.0229Z" fill="white"/>
<path d="M42.1739 21.7405L44.5087 15.9012L41.555 13.8959L38.6014 11.8906L33.8615 16.0918C33.3973 16.5084 33.109 17.0591 33.0598 17.6664C32.68 22.2277 31.6392 25.9912 30.95 28.0953C30.9148 28.2083 30.9078 28.3142 30.943 28.4131L36.576 20.4201C36.2806 20.0459 36.2314 19.5163 36.5198 19.1068C36.8714 18.6055 37.5676 18.4854 38.0739 18.8314C38.5873 19.1774 38.7139 19.8553 38.3552 20.3566C38.0669 20.7661 37.5395 20.9285 37.0823 20.7732L31.4634 28.7661C31.5689 28.7661 31.6744 28.7308 31.7658 28.6461C33.5098 27.2763 36.7448 24.9815 40.9573 23.0185C41.5199 22.7714 41.9629 22.3054 42.1809 21.7405H42.1739Z" fill="#761736"/>
<path d="M46.0418 15.0609L38.8335 10.1748C38.5803 10.0053 38.517 9.65934 38.6928 9.40515L39.4172 8.38132C39.593 8.13419 39.9446 8.07064 40.1978 8.2401L47.4061 13.1262C47.6593 13.2957 47.7225 13.6417 47.5467 13.8959L46.8224 14.9197C46.6466 15.1668 46.2949 15.2304 46.0418 15.0609Z" fill="#761736"/>
</g>
<defs>
<clipPath id="clip0_8_378">
<rect width="132" height="32" fill="white"/>
</clipPath>
</defs>
</svg>
