<svg width="22" height="22" viewBox="0 0 22 22" fill="none" xmlns="http://www.w3.org/2000/svg">
<g id="ph:magnifying-glass-bold">
<path id="Vector" d="M19.9796 18.5204L15.8984 14.4375C17.1221 12.8429 17.6934 10.8426 17.4964 8.84223C17.2995 6.84191 16.349 4.9914 14.8378 3.66608C13.3267 2.34077 11.368 1.63991 9.35903 1.70565C7.35011 1.7714 5.44141 2.59884 4.02013 4.02012C2.59884 5.44141 1.7714 7.3501 1.70566 9.35903C1.63991 11.3679 2.34078 13.3267 3.66609 14.8378C4.9914 16.349 6.84191 17.2995 8.84223 17.4964C10.8426 17.6934 12.8429 17.1221 14.4375 15.8984L18.5221 19.9839C18.618 20.0798 18.7319 20.1559 18.8573 20.2078C18.9826 20.2598 19.1169 20.2865 19.2526 20.2865C19.3882 20.2865 19.5226 20.2598 19.6479 20.2078C19.7732 20.1559 19.8871 20.0798 19.983 19.9839C20.079 19.888 20.1551 19.7741 20.207 19.6488C20.2589 19.5234 20.2856 19.3891 20.2856 19.2534C20.2856 19.1178 20.2589 18.9834 20.207 18.8581C20.1551 18.7328 20.079 18.6189 19.983 18.523L19.9796 18.5204ZM3.78125 9.625C3.78125 8.46922 4.12398 7.33939 4.7661 6.37839C5.40822 5.41739 6.32089 4.66838 7.3887 4.22608C8.4565 3.78378 9.63149 3.66805 10.7651 3.89354C11.8986 4.11902 12.9399 4.67558 13.7572 5.49285C14.5744 6.31011 15.131 7.35136 15.3565 8.48494C15.582 9.61852 15.4662 10.7935 15.0239 11.8613C14.5816 12.9291 13.8326 13.8418 12.8716 14.4839C11.9106 15.126 10.7808 15.4687 9.625 15.4687C8.07563 15.4672 6.59018 14.851 5.49461 13.7554C4.39904 12.6598 3.78285 11.1744 3.78125 9.625Z" fill="#212B4E"/>
</g>
</svg>
