<svg width="36" height="36" viewBox="0 0 36 36" fill="none" xmlns="http://www.w3.org/2000/svg">
<g id="uiw:map" clip-path="url(#clip0_3493_96)">
<path id="Vector" d="M29.1942 3.49739C30.3696 4.41899 31.1796 5.90759 31.5108 7.46639C31.5509 7.47909 31.59 7.49473 31.6278 7.51319L35.3088 9.21599C35.5145 9.31047 35.689 9.46186 35.8114 9.65228C35.9339 9.8427 35.9994 10.0642 36 10.2906V32.5512C35.9987 32.7361 35.9545 32.9182 35.871 33.0832C35.7875 33.2482 35.6669 33.3916 35.5187 33.5021C35.3705 33.6127 35.1986 33.6874 35.0167 33.7204C34.8347 33.7534 34.6476 33.7438 34.47 33.6924L24.2658 30.8124L12.1338 34.1568C11.9149 34.2169 11.6835 34.2144 11.466 34.1496L0.8532 30.9906C0.607897 30.9185 0.392381 30.7693 0.238672 30.565C0.0849617 30.3607 0.00125939 30.1123 0 29.8566L0 7.19639C0 6.40439 0.7704 5.83559 1.539 6.05879L11.8026 9.04859L17.019 7.45199C17.0908 7.4308 17.1643 7.41575 17.2386 7.40699C17.4402 6.22619 18.0036 5.09219 18.9486 3.98699C20.07 2.67299 22.0374 1.90259 23.9544 1.81079C25.9434 1.71539 27.4626 2.14019 29.1924 3.49559M2.3994 8.78579V28.9728L11.1654 31.581V11.3364L2.3994 8.78579ZM17.1756 9.89099L13.5648 10.9944V31.2966L22.6818 28.7874V22.8564C22.6818 22.2012 23.22 21.6702 23.8824 21.6702C24.5448 21.6702 25.0812 22.2012 25.0812 22.8582V28.5768L33.6006 30.9798V11.0448L31.5846 10.1088C31.5504 10.3068 31.5072 10.5012 31.4532 10.6902C31.0618 12.0704 30.4051 13.361 29.52 14.49L25.0614 20.0574C24.944 20.2038 24.7941 20.3207 24.6235 20.399C24.453 20.4773 24.2665 20.5146 24.079 20.5082C23.8915 20.5017 23.708 20.4516 23.5433 20.3618C23.3785 20.2719 23.237 20.1449 23.13 19.9908L18.963 13.9554C18.2754 12.9942 17.793 12.1374 17.5212 11.3706C17.3506 10.892 17.2347 10.3956 17.1756 9.89099ZM24.0696 4.18319C22.7628 4.24619 21.42 4.77179 20.781 5.51879C20.0124 6.41879 19.6344 7.26119 19.5588 8.11439C19.4688 9.14219 19.53 9.86759 19.7856 10.5858C19.9746 11.1168 20.3508 11.79 20.9322 12.6018L24.192 17.3214L27.63 13.0284C28.3236 12.142 28.8378 11.1289 29.1438 10.0458C29.5758 8.53379 28.9242 6.31259 27.7038 5.35859C26.4528 4.37759 25.5078 4.11299 24.0714 4.18319M24.3198 5.43779C26.307 5.43779 27.9198 7.0308 27.9198 8.9964C27.9172 9.46647 27.822 9.93143 27.6397 10.3647C27.4573 10.798 27.1914 11.1911 26.8571 11.5216C26.5228 11.852 26.1266 12.1134 25.6913 12.2907C25.2559 12.468 24.7899 12.5578 24.3198 12.555C22.3326 12.555 20.7198 10.962 20.7198 8.9964C20.7198 7.0308 22.3326 5.43779 24.3198 5.43779ZM24.3198 7.81019C24.1631 7.80925 24.0077 7.83918 23.8626 7.89828C23.7174 7.95738 23.5853 8.04449 23.4738 8.15464C23.3623 8.26479 23.2736 8.39582 23.2128 8.54025C23.1519 8.68467 23.1201 8.83967 23.1192 8.9964C23.1192 9.6516 23.6574 10.1826 24.3198 10.1826C24.4765 10.1833 24.6318 10.1531 24.7769 10.0938C24.922 10.0345 25.0539 9.9472 25.1652 9.83688C25.2766 9.72656 25.3651 9.5954 25.4257 9.45088C25.4863 9.30636 25.5179 9.15132 25.5186 8.9946C25.5162 8.67871 25.3887 8.37665 25.164 8.15464C24.9393 7.93262 24.6357 7.80876 24.3198 7.81019Z" fill="#CFEE2F"/>
</g>
<defs>
<clipPath id="clip0_3493_96">
<rect width="36" height="36" fill="white"/>
</clipPath>
</defs>
</svg>
