<svg width="21" height="22" viewBox="0 0 21 22" fill="none" xmlns="http://www.w3.org/2000/svg">
<path d="M9.28708 1.00748L0.745412 9.75748C0.589884 9.92391 0.467969 10.1202 0.386662 10.335C0.215798 10.761 0.215798 11.2389 0.386662 11.665C0.467969 11.8798 0.589884 12.076 0.745412 12.2425L9.28708 20.9925C9.44636 21.1556 9.63546 21.2851 9.84357 21.3734C10.0517 21.4617 10.2747 21.5071 10.5 21.5071C10.9549 21.5071 11.3912 21.322 11.7129 20.9925C12.0346 20.6629 12.2153 20.216 12.2153 19.75C12.2153 19.284 12.0346 18.837 11.7129 18.5075L6.07541 12.75L19.0417 12.75C19.4947 12.75 19.9293 12.5656 20.2496 12.2374C20.57 11.9092 20.75 11.4641 20.75 11C20.75 10.5359 20.57 10.0907 20.2496 9.76254C19.9293 9.43435 19.4947 9.24998 19.0417 9.24998L6.07541 9.24998L11.7129 3.49248C11.873 3.32979 12.0001 3.13624 12.0869 2.92299C12.1736 2.70974 12.2182 2.481 12.2182 2.24998C12.2182 2.01896 12.1736 1.79023 12.0869 1.57697C12.0001 1.36372 11.873 1.17017 11.7129 1.00748C11.5541 0.843458 11.3652 0.713264 11.157 0.62442C10.9488 0.535575 10.7255 0.489833 10.5 0.489833C10.2745 0.489833 10.0512 0.535575 9.84301 0.62442C9.63483 0.713264 9.44589 0.843458 9.28708 1.00748Z" fill="white"/>
</svg>
