<svg width="84" height="84" viewBox="0 0 84 84" fill="none" xmlns="http://www.w3.org/2000/svg">
<g id="mdi:note-text-outline">
<path id="Vector" d="M52.5 10.5H17.5C15.6435 10.5 13.863 11.2375 12.5503 12.5503C11.2375 13.863 10.5 15.6435 10.5 17.5V66.5C10.5 68.3565 11.2375 70.137 12.5503 71.4497C13.863 72.7625 15.6435 73.5 17.5 73.5H66.5C68.3565 73.5 70.137 72.7625 71.4497 71.4497C72.7625 70.137 73.5 68.3565 73.5 66.5V31.5L52.5 10.5ZM66.5 66.5H17.5V17.5H49V35H66.5M59.5 49H24.5V42H59.5M49 59.5H24.5V52.5H49" fill="#761736"/>
</g>
</svg>
